<svg data-v-0dd9719b="" version="1.0" xmlns="http://www.w3.org/2000/svg" xmlns:xlink="http://www.w3.org/1999/xlink" width="100%" height="100%" viewBox="0 0 340.000000 250.000000" preserveAspectRatio="xMidYMid meet" color-interpolation-filters="sRGB" style="margin: auto;"> <rect data-v-0dd9719b="" x="0" y="0" width="100%" height="100%" fill="#fff" fill-opacity="1" class="background"></rect> <rect data-v-0dd9719b="" x="0" y="0" width="100%" height="100%" fill="url(#watermark)" fill-opacity="1" class="watermarklayer"></rect> <g data-v-0dd9719b="" fill="#333" class="icon-text-wrapper icon-svg-group iconsvg" transform="translate(46.73500061035156,95.46575355529785)"><g class="iconsvg-imagesvg" transform="translate(0,0)"><g><rect fill="#333" fill-opacity="0" stroke-width="2" x="0" y="0" width="60" height="59.06848991405534" class="image-rect"></rect> <svg x="0" y="0" width="60" height="59.06848991405534" filtersec="colorsb2299311007" class="image-svg-svg primary" style="overflow: visible;"><svg xmlns="http://www.w3.org/2000/svg" viewBox="0.4385022521018982 -0.000009216904800268821 101.5615005493164 99.98497772216797"><path d="M69.3 59.41l-9.89 9.89L51 77.73 30.46 98.26A6 6 0 0 1 22 89.83L42.56 69.3 51 60.88l9.9-9.9zM102 24.28a6 6 0 0 1-1.75 4.21L77.72 51l-8.42-8.44 22.5-22.5a6 6 0 0 1 10.2 4.22z" fill="#0059cc"></path><path d="M83.64 6a5.94 5.94 0 0 1-1.74 4.21L41.08 51l-8.42-8.42 9.9-9.89L51 24.24 73.48 1.75A6 6 0 0 1 83.64 6zM32.66 59.41L12.13 79.93a6 6 0 0 1-8.42-8.42L24.24 51z" fill="#00dac7"></path><path d="M51 24.24l-8.42 8.43-22.5-22.5A6 6 0 0 1 24.28 0a5.89 5.89 0 0 1 4.2 1.75zM98.25 79.93a5.94 5.94 0 0 1-8.42 0L51 41.09l8.42-8.42 9.9 9.89 8.4 8.44 20.53 20.51a6 6 0 0 1 0 8.42z" fill="#00baec"></path><path d="M51 60.88l-8.44 8.42L1.74 28.49a6 6 0 0 1 8.43-8.43l22.49 22.5L41.08 51zM79.93 98.26a6 6 0 0 1-8.42 0L51 77.73l8.42-8.43 20.51 20.53a6 6 0 0 1 0 8.43z" fill="#00abd8"></path></svg></svg> <!----></g></g> <g transform="translate(67,10.534246444702148)"><g data-gra="path-name" fill-rule="" class="tp-name iconsvg-namesvg"><g transform="scale(1)"><g><path d="M39.35-37.29L31.3 0 17.56 0 11.04-26.96 5.29 0 0 0 7.93-37.29 21.96-37.29 28.13-9.98 33.94-37.29 39.35-37.29ZM54.62-25.25L49.15 0 37.23 0 42.58-25.25 54.62-25.25ZM56.14-32.95L56.14-32.95Q56.14-31.6 55.59-30.6 55.03-29.6 54.12-28.89 53.21-28.19 52.03-27.84 50.86-27.48 49.62-27.48L49.62-27.48Q47.28-27.48 45.69-28.6 44.1-29.72 44.1-32.12L44.1-32.12Q44.1-33.42 44.63-34.44 45.16-35.47 46.07-36.15 46.98-36.82 48.19-37.17 49.39-37.53 50.68-37.53L50.68-37.53Q52.97-37.53 54.56-36.41 56.14-35.3 56.14-32.95ZM73-6.99L76.93-25.25 88.91-25.25 83.51 0 74 0 72.94-3.76 72.59-3.76Q71.06-1.94 68.45-0.73 65.83 0.47 63.19 0.47L63.19 0.47Q59.67 0.47 57.67-1.32 55.67-3.11 55.67-5.99L55.67-5.99Q55.67-7.46 56.17-9.66 56.67-11.86 57.08-13.8L57.08-13.8 59.55-25.25 71.47-25.25 68.54-11.51Q68.42-11.04 68.3-10.39 68.18-9.75 68.07-9.13 67.95-8.52 67.86-7.96 67.77-7.4 67.77-7.05L67.77-7.05Q67.77-6.17 68.15-5.55 68.54-4.93 69.53-4.93L69.53-4.93Q70.59-4.93 71.53-5.64 72.47-6.34 73-6.99L73-6.99ZM91.26-21.32L92.08-25.25Q94.26-25.72 95.9-26.31 97.55-26.9 98.93-27.78 100.31-28.66 101.57-29.95 102.83-31.24 104.3-33.12L104.3-33.12 110.35-33.12 108.65-25.25 113.23-25.25 112.46-21.32 107.82-21.32 105.42-9.87Q105.12-8.52 104.95-7.46 104.77-6.4 104.77-5.81L104.77-5.81Q104.77-4.64 105.62-4.35 106.47-4.05 108.82-4.05L108.82-4.05 107.94 0Q107.53 0.12 106.68 0.18 105.83 0.23 104.8 0.32 103.77 0.41 102.69 0.44 101.6 0.47 100.78 0.47L100.78 0.47Q99.31 0.47 97.9 0.26 96.49 0.06 95.37-0.56 94.26-1.17 93.58-2.35 92.91-3.52 92.91-5.52L92.91-5.52Q92.91-6.23 93-7.28 93.08-8.34 93.38-9.63L93.38-9.63 95.84-21.32 91.26-21.32ZM130.38-25.9L130.38-25.9Q137.36-25.9 140.54-23.43L140.54-23.43Q143.88-20.85 143.88-14.86L143.88-14.86Q143.88-11.16 142.65-8.19 141.42-5.23 139.18-3.29L139.18-3.29Q134.72 0.47 126.26 0.47L126.26 0.47Q119.04 0.47 115.93-2.29L115.93-2.29Q112.58-5.17 112.58-10.92L112.58-10.92Q112.58-14.74 114.14-17.85 115.69-20.97 118.63-23.02L118.63-23.02Q122.92-25.9 130.38-25.9ZM126.38-3.52L126.38-3.52Q127.85-3.52 128.94-5.17 130.02-6.81 130.67-9.19 131.31-11.57 131.64-14.12 131.96-16.68 131.96-18.56L131.96-18.56Q131.96-20.2 131.64-21.05 131.31-21.91 130.26-21.91L130.26-21.91Q128.67-21.91 127.53-20.2 126.38-18.5 125.68-16.15 124.97-13.8 124.65-11.33 124.33-8.87 124.33-7.34L124.33-7.34Q124.33-3.52 126.38-3.52ZM163.62-6.99L167.55-25.25 179.53-25.25 174.13 0 164.61 0 163.56-3.76 163.2-3.76Q161.68-1.94 159.06-0.73 156.45 0.47 153.81 0.47L153.81 0.47Q150.28 0.47 148.29-1.32 146.29-3.11 146.29-5.99L146.29-5.99Q146.29-7.46 146.79-9.66 147.29-11.86 147.7-13.8L147.7-13.8 150.17-25.25 162.09-25.25 159.15-11.51Q159.03-11.04 158.92-10.39 158.8-9.75 158.68-9.13 158.56-8.52 158.48-7.96 158.39-7.4 158.39-7.05L158.39-7.05Q158.39-6.17 158.77-5.55 159.15-4.93 160.15-4.93L160.15-4.93Q161.21-4.93 162.15-5.64 163.09-6.34 163.62-6.99L163.62-6.99Z" transform="translate(0, 37.529998779296875)"></path></g> <!----> <!----> <!----> <!----> <!----> <!----> <!----></g></g> <!----></g></g><defs v-gra="od"></defs></svg>